<svg xmlns="http://www.w3.org/2000/svg" width="1600" height="900" viewBox="0 0 1600 900"><defs><linearGradient id="g" x1="0" y1="0" x2="1" y2="1"><stop offset="0%" stop-color="#fff7ed"/><stop offset="52%" stop-color="#fb923c"/><stop offset="100%" stop-color="#9a3412"/></linearGradient></defs><rect width="1600" height="900" fill="url(#g)"/><g opacity="0.16" fill="#fff"><path d="M120 170h420v420H120z"/><path d="M1080 130h360v240h-360z"/></g><g transform="translate(930 180)"><rect x="0" y="0" width="500" height="320" rx="34" fill="#111827" opacity="0.4"/><path d="M70 200h360" stroke="#fde68a" stroke-width="14" stroke-linecap="round"/><path d="M120 80h40v170h-40zM200 40h40v210h-40zM280 90h40v160h-40zM360 20h40v230h-40z" fill="#0f172a" opacity="0.75"/><path d="M85 120l70-70 70 70 70-100 70 110 70-50" fill="none" stroke="#fff" stroke-width="16" stroke-linecap="round" stroke-linejoin="round"/></g><g transform="translate(140 220)"><rect x="0" y="0" width="520" height="260" rx="28" fill="#0f172a" opacity="0.6"/><path d="M90 70h340M90 130h260M90 190h300" stroke="#fff" stroke-width="14" stroke-linecap="round" opacity="0.85"/><circle cx="70" cy="70" r="16" fill="#fde047"/><circle cx="70" cy="130" r="16" fill="#fde047"/><circle cx="70" cy="190" r="16" fill="#fde047"/></g><text x="110" y="770" font-family="Arial, Helvetica, sans-serif" font-size="78" font-weight="700" fill="#ffffff">Installation & Safety</text><text x="110" y="836" font-family="Arial, Helvetica, sans-serif" font-size="34" fill="#fff7ed">Khảo sát, thi công và nghiệm thu hệ thống điện mặt trời</text></svg>